<svg height='100px' width='100px'  fill="#000000" xmlns="http://www.w3.org/2000/svg" xmlns:xlink="http://www.w3.org/1999/xlink" version="1.1" x="0px" y="0px" viewBox="0 0 283.5 283.5" style="enable-background:new 0 0 283.5 283.5;" xml:space="preserve"><path d="M31.5-0.1C11.4-0.1,0,10.7,0,31.8v221c0,20.1,10.3,30.7,30.3,30.7h221.9c20.5,0,30.7-10.1,30.7-30.7v-221  c0-20.9-10.2-31.9-31-31.9H31.5z M136.6,221.8v33.1l-30.7-31.1c-2.5-1.9-3.2-4.5-3.2-7.2v-32.8l30,29.4  C135,215.9,136.6,218.2,136.6,221.8z M136.6,172.5V206l-30.7-31c-2.5-2.1-3.2-4.3-3.2-7.1v-33.6l30,30  C135,166.8,136.6,169.5,136.6,172.5z M136.6,123.8V157l-30.7-30.9c-2.5-1.9-3.2-4.3-3.2-7.1V85.6l30,30  C135,117.9,136.6,120.1,136.6,123.8z M136.6,75V108l-30.7-30.5c-2.5-2.1-3.2-4.8-3.2-7.1V36.9l30,29.9C135,69.1,136.6,71.8,136.6,75  z M145.8,221.8c0-3.7,1.6-5.9,4.3-8.7l30-29.4v32.8c0,2.7-1.6,5.3-3.4,7.2l-30.9,31.1V221.8z M145.8,172.5c0-3,1.6-5.7,4.3-8.2  l30-30v33.6c0,2.7-1.6,5-3.4,7.1l-30.9,31V172.5z M145.8,123.8c0-3.7,1.6-5.9,4.3-8.2l30-30V119c0,2.7-1.6,5.1-3.4,7.1L145.8,157  V123.8z M145.8,75c0-3.2,1.6-5.8,4.3-8.2l30-29.9v33.5c0,2.3-1.6,5-3.4,7.1L145.8,108V75z"></path></svg>