<?xml version="1.0"?>
<svg width="400" height="100" xmlns="http://www.w3.org/2000/svg" xmlns:svg="http://www.w3.org/2000/svg" xmlns:xlink="http://www.w3.org/1999/xlink">
 <!-- Created with SVG-edit - https://github.com/SVG-Edit/svgedit-->
 <defs>
  <symbol height="100px" id="svg_1" viewBox="0 0 283.5 283.5" width="100px" xmlns="http://www.w3.org/2000/svg" xmlns:xlink="http://www.w3.org/1999/xlink">
   <path d="m31.5,-0.1c-20.1,0 -31.5,10.8 -31.5,31.9l0,221c0,20.1 10.3,30.7 30.3,30.7l221.9,0c20.5,0 30.7,-10.1 30.7,-30.7l0,-221c0,-20.9 -10.2,-31.9 -31,-31.9l-220.4,0zm105.1,221.9l0,33.1l-30.7,-31.1c-2.5,-1.9 -3.2,-4.5 -3.2,-7.2l0,-32.8l30,29.4c2.3,2.7 3.9,5 3.9,8.6zm0,-49.3l0,33.5l-30.7,-31c-2.5,-2.1 -3.2,-4.3 -3.2,-7.1l0,-33.6l30,30c2.3,2.5 3.9,5.2 3.9,8.2zm0,-48.7l0,33.2l-30.7,-30.9c-2.5,-1.9 -3.2,-4.3 -3.2,-7.1l0,-33.4l30,30c2.3,2.3 3.9,4.5 3.9,8.2zm0,-48.8l0,33l-30.7,-30.5c-2.5,-2.1 -3.2,-4.8 -3.2,-7.1l0,-33.5l30,29.9c2.3,2.3 3.9,5 3.9,8.2zm9.2,146.8c0,-3.7 1.6,-5.9 4.3,-8.7l30,-29.4l0,32.8c0,2.7 -1.6,5.3 -3.4,7.2l-30.9,31.1l0,-33zm0,-49.3c0,-3 1.6,-5.7 4.3,-8.2l30,-30l0,33.6c0,2.7 -1.6,5 -3.4,7.1l-30.9,31l0,-33.5zm0,-48.7c0,-3.7 1.6,-5.9 4.3,-8.2l30,-30l0,33.4c0,2.7 -1.6,5.1 -3.4,7.1l-30.9,30.9l0,-33.2zm0,-48.8c0,-3.2 1.6,-5.8 4.3,-8.2l30,-29.9l0,33.5c0,2.3 -1.6,5 -3.4,7.1l-30.9,30.5l0,-33z" id="svg_4"/>
  </symbol>
 </defs>
 <g class="layer">
  <title>Layer 1</title>
  <use id="svg_2" transform="matrix(0.990186, 0, 0, 0.990186, 0.754485, 0.769504)" x="0" xlink:href="#svg_1" y="1.009912"/>
  <g id="svg_3"/>
  <text fill="#000000" font-family="Sans-serif" font-size="24" id="svg_5" stroke="#000000" stroke-width="0" text-anchor="middle" transform="rotate(-1.42109e-14, 245.5, 53.1828) matrix(3.35057, 0, 0, 3.35057, -181.074, -17.416)" x="127.313629" xml:space="preserve" y="29.427465">Gluten</text>
 </g>
</svg>